<?xml version="1.0" encoding="UTF-8"?>
<svg version="1.1" xmlns="http://www.w3.org/2000/svg" width="173" height="75">
<path d="M0 0 C15.51 0 31.02 0 47 0 C47.495 1.485 47.495 1.485 48 3 C47.34 3 46.68 3 46 3 C45.731875 3.928125 45.46375 4.85625 45.1875 5.8125 C43.53210111 10.25593911 43.53210111 10.25593911 41 12 C38.40251352 12.19175822 36.07078069 12.21080253 33.48828125 12.07421875 C32.76005661 12.04777786 32.03183197 12.02133698 31.28153992 11.99409485 C28.95768728 11.90638495 26.63540721 11.79722285 24.3125 11.6875 C22.73638431 11.62423532 21.16021181 11.56236945 19.58398438 11.50195312 C15.72180981 11.35085376 11.8609072 11.18051077 8 11 C7.34 12.98 6.68 14.96 6 17 C5.34 17 4.68 17 4 17 C3.731875 17.886875 3.46375 18.77375 3.1875 19.6875 C2.0749365 22.7909666 0.89804222 25.31110685 -1 28 C-1.66 28 -2.32 28 -3 28 C-3.10441406 28.55171875 -3.20882812 29.1034375 -3.31640625 29.671875 C-4.14560384 32.49588509 -5.4279965 34.72554916 -6.9375 37.25 C-7.46214844 38.14203125 -7.98679688 39.0340625 -8.52734375 39.953125 C-9.01332031 40.62859375 -9.49929687 41.3040625 -10 42 C-10.66 42 -11.32 42 -12 42 C-12 42.99 -12 43.98 -12 45 C-12.66 45 -13.32 45 -14 45 C-14.11214844 45.56203125 -14.22429688 46.1240625 -14.33984375 46.703125 C-15.09057339 49.31513108 -16.21167376 51.39471322 -17.5625 53.75 C-18.01753906 54.54921875 -18.47257812 55.3484375 -18.94140625 56.171875 C-19.29074219 56.77515625 -19.64007812 57.3784375 -20 58 C-20.66 58 -21.32 58 -22 58 C-22.4640625 59.175625 -22.4640625 59.175625 -22.9375 60.375 C-24 63 -24 63 -25 65 C-29.95 64.67 -34.9 64.34 -40 64 C-37.56641846 58.85203904 -34.87806498 54.20626617 -31.65234375 49.51953125 C-29.06285954 45.57102696 -26.80403807 41.43701462 -24.515625 37.30859375 C-24.01546875 36.54675781 -23.5153125 35.78492188 -23 35 C-22.34 35 -21.68 35 -21 35 C-20.76410156 34.15953125 -20.52820313 33.3190625 -20.28515625 32.453125 C-18.80134192 28.46621963 -16.79467159 25.26527644 -14.4375 21.75 C-11.54119471 17.47974122 -11.54119471 17.47974122 -9 13 C-8.34 13 -7.68 13 -7 13 C-7 12.01 -7 11.02 -7 10 C-6.34 10 -5.68 10 -5 10 C-4.67 8.35 -4.34 6.7 -4 5 C-3.34 5 -2.68 5 -2 5 C-1.34 3.35 -0.68 1.7 0 0 Z " fill="#BAE24F" transform="translate(46,5)"/>
<path d="M0 0 C0.92791351 -0.01929062 1.85582703 -0.03858124 2.81185913 -0.05845642 C7.0524312 -0.11608755 11.29283264 -0.16545438 15.53369141 -0.19628906 C17.77245476 -0.21790314 20.01113285 -0.25204581 22.24951172 -0.29882812 C25.47352918 -0.36561881 28.69579974 -0.39325205 31.92041016 -0.41235352 C32.92155853 -0.44018417 33.92270691 -0.46801483 34.95419312 -0.49668884 C37.61183432 -0.48879599 39.94153045 -0.42839837 42.52197266 0.20874023 C46.52197266 4.58614717 46.52197266 4.58614717 46.52197266 8.20874023 C47.18197266 8.20874023 47.84197266 8.20874023 48.52197266 8.20874023 C52.66673456 14.30397833 52.66673456 14.30397833 52.02197266 18.33374023 C50.47330627 21.30201747 48.66707102 23.64846154 46.52197266 26.20874023 C46.02697266 27.69374023 46.02697266 27.69374023 45.52197266 29.20874023 C44.86197266 29.20874023 44.20197266 29.20874023 43.52197266 29.20874023 C43.08884766 30.32249023 43.08884766 30.32249023 42.64697266 31.45874023 C41.7081793 33.75356844 40.63080713 35.99107129 39.52197266 38.20874023 C26.65197266 38.20874023 13.78197266 38.20874023 0.52197266 38.20874023 C0.52197266 38.86874023 0.52197266 39.52874023 0.52197266 40.20874023 C-0.13802734 39.87874023 -0.79802734 39.54874023 -1.47802734 39.20874023 C-0.77861138 36.06136842 0.28275964 33.18285147 1.52197266 30.20874023 C2.18197266 30.20874023 2.84197266 30.20874023 3.52197266 30.20874023 C3.85197266 29.21874023 4.18197266 28.22874023 4.52197266 27.20874023 C13.43197266 27.20874023 22.34197266 27.20874023 31.52197266 27.20874023 C32.18197266 25.55874023 32.84197266 23.90874023 33.52197266 22.20874023 C34.38822266 21.21874023 34.38822266 21.21874023 35.27197266 20.20874023 C35.89072266 19.21874023 35.89072266 19.21874023 36.52197266 18.20874023 C35.86197266 16.55874023 35.20197266 14.90874023 34.52197266 13.20874023 C19.67197266 13.20874023 4.82197266 13.20874023 -10.47802734 13.20874023 C-11.47802734 10.20874023 -11.47802734 10.20874023 -10.55224609 7.98217773 C-10.09462891 7.19069336 -9.63701172 6.39920898 -9.16552734 5.58374023 C-8.71564453 4.78709961 -8.26576172 3.99045898 -7.80224609 3.16967773 C-5.63086148 -0.04576496 -3.66290406 0.07105499 0 0 Z " fill="#C1E360" transform="translate(62.47802734375,30.791259765625)"/>
<path d="M0 0 C3.43770829 -0.05385444 6.87457642 -0.09360344 10.3125 -0.125 C11.28896484 -0.14175781 12.26542969 -0.15851562 13.27148438 -0.17578125 C14.20927734 -0.18222656 15.14707031 -0.18867187 16.11328125 -0.1953125 C16.97735596 -0.20578613 17.84143066 -0.21625977 18.73168945 -0.22705078 C21 0 21 0 24 2 C27 7.33333333 27 7.33333333 27 10 C27.66 10 28.32 10 29 10 C29 10.99 29 11.98 29 13 C29.66 13 30.32 13 31 13 C32.125 16.75 32.125 16.75 31 19 C30.34 19 29.68 19 29 19 C28.855625 19.61875 28.71125 20.2375 28.5625 20.875 C28 23 28 23 27 25 C26.34 25 25.68 25 25 25 C24.71125 25.721875 24.4225 26.44375 24.125 27.1875 C23.08333333 29.79166667 22.04166667 32.39583333 21 35 C20.34 35 19.68 35 19 35 C18.67 36.32 18.34 37.64 18 39 C14.66750514 35.19143444 11.17388701 31.01742029 10 26 C10.89155301 23.1187616 12.15545242 21.45939677 14 19 C14.66 19 15.32 19 16 19 C15.67 16.69 15.34 14.38 15 12 C8.4 12.33 1.8 12.66 -5 13 C-5.66 11.68 -6.32 10.36 -7 9 C-6.34 9 -5.68 9 -5 9 C-3.35 6.03 -1.7 3.06 0 0 Z " fill="#BFE45D" transform="translate(100,5)"/>
<path d="M0 0 C0.80449081 0.00586624 1.60898163 0.01173248 2.43785095 0.01777649 C3.35212357 0.01485092 4.26639618 0.01192535 5.20837402 0.00891113 C6.19280991 0.02641922 7.17724579 0.04392731 8.19151306 0.06196594 C9.20354294 0.06525406 10.21557281 0.06854218 11.25827026 0.07192993 C13.39762296 0.08235524 15.53694722 0.10231259 17.6761322 0.13105774 C20.95941102 0.17512043 24.24195962 0.19248942 27.52549744 0.20454407 C29.60167991 0.21796824 31.67785335 0.23289124 33.75401306 0.24946594 C35.23370323 0.26054634 35.23370323 0.26054634 36.74328613 0.27185059 C37.65440659 0.28468582 38.56552704 0.29752106 39.5042572 0.31074524 C40.70980003 0.32551155 40.70980003 0.32551155 41.93969727 0.34057617 C43.90635681 0.48774719 43.90635681 0.48774719 45.90635681 1.48774719 C45.90635681 2.80774719 45.90635681 4.12774719 45.90635681 5.48774719 C46.56635681 5.48774719 47.22635681 5.48774719 47.90635681 5.48774719 C47.78135681 7.36274719 47.78135681 7.36274719 46.90635681 9.48774719 C43.29948431 11.1343629 41.72123471 11.75937316 37.90635681 10.48774719 C36.41865076 10.37398847 34.92668357 10.31167517 33.43492126 10.28242493 C32.53421402 10.26247971 31.63350677 10.24253448 30.70550537 10.22198486 C29.73666916 10.20527237 28.76783295 10.18855988 27.76963806 10.17134094 C26.27777229 10.1401693 26.27777229 10.1401693 24.75576782 10.10836792 C21.57686814 10.04295307 18.39788548 9.9840248 15.21885681 9.92524719 C13.06455133 9.88205431 10.91025427 9.83843977 8.75596619 9.79438782 C3.47285093 9.68727993 -1.81034698 9.58549846 -7.09364319 9.48774719 C-4.00438747 0.9328852 -4.00438747 0.9328852 0 0 Z " fill="#AFDE37" transform="translate(60.09364318847656,32.51225280761719)"/>
<path d="M0 0 C12.87 0 25.74 0 39 0 C37.96158943 5.19205287 37.24289526 8.68841917 33 12 C28.5600294 13.30208464 24.23137854 13.47830005 19.625 13.625 C18.4184375 13.73328125 17.211875 13.8415625 15.96875 13.953125 C12.31330568 14.10576993 9.50644403 14.06266146 6 13 C2.72729058 9.75342 0.59939236 6.32204084 -1 2 C-0.67 1.34 -0.34 0.68 0 0 Z " fill="#AFDD36" transform="translate(128,5)"/>
<path d="M0 0 C1.32 0 2.64 0 4 0 C4.48951049 6.36363636 4.48951049 6.36363636 2.125 9.4375 C0 11 0 11 -2 11 C-2.33 12.32 -2.66 13.64 -3 15 C-3.495 13.515 -3.495 13.515 -4 12 C-4.66 12 -5.32 12 -6 12 C-6.33 13.32 -6.66 14.64 -7 16 C-17.23 16 -27.46 16 -38 16 C-38 15.01 -38 14.02 -38 13 C-37.34 13 -36.68 13 -36 13 C-36 12.34 -36 11.68 -36 11 C-35.34 11.33 -34.68 11.66 -34 12 C-32.84188612 10.94729537 -32.84188612 10.94729537 -32 9 C-23.92138585 8.90420616 -16.01659634 8.87486367 -8 10 C-7.566875 8.865625 -7.13375 7.73125 -6.6875 6.5625 C-5.8521875 4.7990625 -5.8521875 4.7990625 -5 3 C-2 2 -2 2 0.1875 2.9375 C0.785625 3.288125 1.38375 3.63875 2 4 C2 3.34 2 2.68 2 2 C1.01 1.67 0.02 1.34 -1 1 C-0.67 0.67 -0.34 0.34 0 0 Z " fill="#AFDE35" transform="translate(103,51)"/>
<path d="M0 0 C1.22589844 0.01353516 1.22589844 0.01353516 2.4765625 0.02734375 C3.10304687 0.03894531 3.72953125 0.05054688 4.375 0.0625 C4.11938677 2.4056213 3.78229228 4.74093403 3.375 7.0625 C0.36286971 8.56856515 -2.73782622 8.18410331 -6.0390625 8.16015625 C-6.76870209 8.1587413 -7.49834167 8.15732635 -8.25009155 8.15586853 C-10.58343585 8.15026531 -12.91668464 8.13771235 -15.25 8.125 C-16.83072778 8.11998541 -18.41145707 8.11542243 -19.9921875 8.11132812 C-23.86982854 8.10029484 -27.74739807 8.08302811 -31.625 8.0625 C-32.625 3.3125 -32.625 3.3125 -32.625 1.0625 C-31.84785645 1.06773682 -31.07071289 1.07297363 -30.27001953 1.07836914 C-26.76335451 1.09910156 -23.25670237 1.11214821 -19.75 1.125 C-18.52667969 1.13337891 -17.30335937 1.14175781 -16.04296875 1.15039062 C-14.87636719 1.15361328 -13.70976563 1.15683594 -12.5078125 1.16015625 C-11.42902832 1.16539307 -10.35024414 1.17062988 -9.23876953 1.17602539 C-5.92944813 1.03228969 -3.43476042 -0.04906801 0 0 Z " fill="#B0DE3B" transform="translate(86.625,6.9375)"/>
<path d="M0 0 C3.465 1.485 3.465 1.485 7 3 C7 4.65 7 6.3 7 8 C5.68 8.33 4.36 8.66 3 9 C3.04125 9.7425 3.0825 10.485 3.125 11.25 C2.93770243 15.37054648 1.26167785 17.60748323 -1 21 C-1.66 21 -2.32 21 -3 21 C-3 21.66 -3 22.32 -3 23 C-3.66 23 -4.32 23 -5 23 C-5.33 23.99 -5.66 24.98 -6 26 C-9.21451269 27.60725635 -12.43612536 27.05748185 -16 27 C-13.20759164 19.13048553 -8.70038435 11.13501776 -3 5 C-2.34 5 -1.68 5 -1 5 C-0.67 3.35 -0.34 1.7 0 0 Z " fill="#AEDD35" transform="translate(25,41)"/>
<path d="M0 0 C1.92377906 0.1260407 3.84592432 0.27937586 5.765625 0.45703125 C7.24095703 0.56241211 7.24095703 0.56241211 8.74609375 0.66992188 C11.17203459 0.84656805 13.59351673 1.04717689 16.015625 1.26953125 C14.53796474 5.96148343 12.86681833 9.14573019 9.015625 12.26953125 C1.85246256 13.7678834 -5.74962483 12.93127442 -12.984375 12.26953125 C-12.984375 9.26953125 -12.984375 9.26953125 -11.234375 7.39453125 C-10.120625 6.34265625 -10.120625 6.34265625 -8.984375 5.26953125 C-8.4996875 4.39683594 -8.015 3.52414063 -7.515625 2.625 C-4.55320019 -0.13170087 -3.89281409 -0.05925995 0 0 Z " fill="#B4DE3D" transform="translate(135.984375,30.73046875)"/>
<path d="M0 0 C2.02481079 -0.36076355 2.02481079 -0.36076355 4.54150391 -0.34057617 C5.95274033 -0.34023628 5.95274033 -0.34023628 7.39248657 -0.33988953 C8.41023163 -0.32440567 9.42797668 -0.30892181 10.4765625 -0.29296875 C11.51694672 -0.28872391 12.55733093 -0.28447906 13.62924194 -0.28010559 C16.96142147 -0.26327482 20.29300241 -0.22561422 23.625 -0.1875 C25.88019962 -0.17245887 28.13540869 -0.15876947 30.390625 -0.14648438 C35.92728855 -0.11335699 41.46360152 -0.0631142 47 0 C47.495 1.485 47.495 1.485 48 3 C47.34 3 46.68 3 46 3 C45.67 3.66 45.34 4.32 45 5 C45 4.01 45 3.02 45 2 C43.56208484 2.14168137 42.1246763 2.28851043 40.6875 2.4375 C39.88699219 2.51871094 39.08648437 2.59992187 38.26171875 2.68359375 C35.83912821 2.95265693 35.83912821 2.95265693 33 4 C31.07906824 4.01583723 29.15727672 3.96657609 27.23828125 3.87890625 C26.12001953 3.83056641 25.00175781 3.78222656 23.84960938 3.73242188 C22.68236328 3.67634766 21.51511719 3.62027344 20.3125 3.5625 C18.54422852 3.48418945 18.54422852 3.48418945 16.74023438 3.40429688 C13.82655906 3.27453806 10.91321922 3.13956868 8 3 C8.33 4.98 8.66 6.96 9 9 C20.22 9 31.44 9 43 9 C42.67 9.99 42.34 10.98 42 12 C30.78 11.67 19.56 11.34 8 11 C7.67 12.32 7.34 13.64 7 15 C5.35 15 3.7 15 2 15 C1.67 15.66 1.34 16.32 1 17 C1 14.36 1 11.72 1 9 C-0.32 9.33 -1.64 9.66 -3 10 C-2.25 3.375 -2.25 3.375 0 0 Z " fill="#BCE05B" transform="translate(46,5)"/>
<path d="M0 0 C1.26339822 3.79019466 0.49719015 5.37522384 -1 9 C-1.99 9.495 -1.99 9.495 -3 10 C-3 10.99 -3 11.98 -3 13 C-0.36 13 2.28 13 5 13 C5 12.01 5 11.02 5 10 C6.65 9.67 8.3 9.34 10 9 C8.66749209 12.5875213 7.169283 15.8364623 5 19 C4.34 19 3.68 19 3 19 C3 19.99 3 20.98 3 22 C2.34 22 1.68 22 1 22 C0.88785156 22.56203125 0.77570312 23.1240625 0.66015625 23.703125 C-0.09057339 26.31513108 -1.21167376 28.39471322 -2.5625 30.75 C-3.01753906 31.54921875 -3.47257812 32.3484375 -3.94140625 33.171875 C-4.29074219 33.77515625 -4.64007812 34.3784375 -5 35 C-5.66 35 -6.32 35 -7 35 C-7.4640625 36.175625 -7.4640625 36.175625 -7.9375 37.375 C-9 40 -9 40 -10 42 C-14.95 41.67 -19.9 41.34 -25 41 C-22.56641846 35.85203904 -19.87806498 31.20626617 -16.65234375 26.51953125 C-14.06285954 22.57102696 -11.80403807 18.43701462 -9.515625 14.30859375 C-9.01546875 13.54675781 -8.5153125 12.78492188 -8 12 C-7.34 12 -6.68 12 -6 12 C-5.7525 11.13375 -5.505 10.2675 -5.25 9.375 C-3.93221387 5.81697746 -2.19813178 3.0773845 0 0 Z M-6 13 C-6.0825 13.78375 -6.165 14.5675 -6.25 15.375 C-6.4975 16.24125 -6.745 17.1075 -7 18 C-8.32407669 18.68486725 -9.65909241 19.34870203 -11 20 C-12.50861323 21.97680354 -13.73892449 23.86711988 -15 26 C-15.59683594 26.98742188 -16.19367187 27.97484375 -16.80859375 28.9921875 C-20.40681915 34.17209353 -20.40681915 34.17209353 -22 40 C-20.1128125 40.0309375 -20.1128125 40.0309375 -18.1875 40.0625 C-17.47980469 40.07410156 -16.77210937 40.08570312 -16.04296875 40.09765625 C-13.79694539 40.08263217 -13.79694539 40.08263217 -11 39 C-11 38.01 -11 37.02 -11 36 C-10.34 36 -9.68 36 -9 36 C-9 35.34 -9 34.68 -9 34 C-8.01 33.67 -7.02 33.34 -6 33 C-4.84478498 30.52869082 -4.84478498 30.52869082 -4 28 C-3.67 27.67 -3.34 27.34 -3 27 C-2.95936168 25.33382885 -2.957279 23.66611905 -3 22 C-1.68 21.67 -0.36 21.34 1 21 C1 19.35 1 17.7 1 16 C-1.31 15.01 -3.62 14.02 -6 13 Z " fill="#D2EB8B" transform="translate(31,28)"/>
<path d="M0 0 C0.99 0.66 1.98 1.32 3 2 C3.99 1.67 4.98 1.34 6 1 C6.66 1.33 7.32 1.66 8 2 C8.38932033 3.98985949 8.71887936 5.99199544 9 8 C9.33 8.99 9.66 9.98 10 11 C10.66 11 11.32 11 12 11 C11.67 12.32 11.34 13.64 11 15 C11.66 15 12.32 15 13 15 C13.33 16.32 13.66 17.64 14 19 C13.01 19.66 12.02 20.32 11 21 C10.67 21.99 10.34 22.98 10 24 C7.5625 23.3125 7.5625 23.3125 5 22 C3.9934081 19.21251475 4.00086042 16.95869997 4.0625 14 C4.1670412 10.56700633 4.1670412 10.56700633 2 6 C-2.95 6 -7.9 6 -13 6 C-12.34 4.35 -11.68 2.7 -11 1 C-10.06027344 1.01740234 -10.06027344 1.01740234 -9.1015625 1.03515625 C-7.87566406 1.04869141 -7.87566406 1.04869141 -6.625 1.0625 C-5.40683594 1.07990234 -5.40683594 1.07990234 -4.1640625 1.09765625 C-1.95062858 1.14466334 -1.95062858 1.14466334 0 0 Z " fill="#ADDD33" transform="translate(114,7)"/>
<path d="M0 0 C12.87 0 25.74 0 39 0 C37.96158943 5.19205287 37.24289526 8.68841917 33 12 C28.5600294 13.30208464 24.23137854 13.47830005 19.625 13.625 C18.4184375 13.73328125 17.211875 13.8415625 15.96875 13.953125 C12.31330568 14.10576993 9.50644403 14.06266146 6 13 C2.72729058 9.75342 0.59939236 6.32204084 -1 2 C-0.67 1.34 -0.34 0.68 0 0 Z M2 2 C2.66 3.65 3.32 5.3 4 7 C4.66 7 5.32 7 6 7 C6 8.32 6 9.64 6 11 C10.10403363 11.08694042 14.20783129 11.14037149 18.3125 11.1875 C20.06336914 11.22520508 20.06336914 11.22520508 21.84960938 11.26367188 C22.96787109 11.27333984 24.08613281 11.28300781 25.23828125 11.29296875 C26.26993408 11.3086792 27.30158691 11.32438965 28.36450195 11.34057617 C31.00619918 11.20142122 31.00619918 11.20142122 32.86010742 9.73168945 C34.36655085 7.78867844 34.36655085 7.78867844 34 4 C34.66 3.67 35.32 3.34 36 3 C32.3298994 1.84207525 28.87724396 1.88611337 25.046875 1.90234375 C24.38665344 1.9037587 23.72643188 1.90517365 23.04620361 1.90663147 C20.94742206 1.91220755 18.84874905 1.92475553 16.75 1.9375 C15.32291821 1.9425181 13.89583475 1.94708046 12.46875 1.95117188 C8.97913168 1.96216912 5.48957644 1.9794172 2 2 Z " fill="#DEEFAF" transform="translate(128,5)"/>
<path d="M0 0 C0.94875 0.185625 1.8975 0.37125 2.875 0.5625 C5.89868793 1.28686632 5.89868793 1.28686632 8 0 C7.855625 0.70125 7.71125 1.4025 7.5625 2.125 C6.98521625 5.07556141 6.48304859 8.03270151 6 11 C4.68 11.33 3.36 11.66 2 12 C2 12.99 2 13.98 2 15 C-0.70879335 16.35439668 -3.00933268 16.06501451 -6 16 C-6.6875 14.1875 -6.6875 14.1875 -7 12 C-6 11 -5 10 -4 9 C-3.25613932 6.69011685 -2.57809297 4.35684056 -2 2 C-1.34 2 -0.68 2 0 2 C0 1.34 0 0.68 0 0 Z " fill="#ACDC31" transform="translate(34,26)"/>
<path d="M0 0 C0.94082428 0.00007553 1.88164856 0.00015106 2.85098267 0.00022888 C3.86872772 0.00539017 4.88647278 0.01055145 5.93505859 0.01586914 C6.97544281 0.01728409 8.01582703 0.01869904 9.08773804 0.02015686 C12.4196863 0.02576673 15.75156804 0.03832092 19.08349609 0.05102539 C21.33870346 0.05603912 23.59391187 0.06060225 25.84912109 0.06469727 C31.38560223 0.07573936 36.92204441 0.09248712 42.45849609 0.11352539 C42.95349609 1.59852539 42.95349609 1.59852539 43.45849609 3.11352539 C42.8682515 3.0957605 42.2780069 3.07799561 41.6698761 3.05969238 C35.52209251 2.88259376 29.37503363 2.76200666 23.2253418 2.67407227 C20.9310971 2.63385934 18.63705718 2.57927864 16.34350586 2.51000977 C13.04408308 2.41286287 9.74736997 2.36757736 6.44677734 2.33227539 C5.42264236 2.29098511 4.39850739 2.24969482 3.34333801 2.20715332 C2.38271957 2.20654907 1.42210114 2.20594482 0.43237305 2.20532227 C-0.83004463 2.17867493 -0.83004463 2.17867493 -2.1179657 2.15148926 C-5.77257654 3.32511045 -5.77257654 3.32511045 -9.54150391 11.11352539 C5.30849609 11.11352539 20.15849609 11.11352539 35.45849609 11.11352539 C35.45849609 12.10352539 35.45849609 13.09352539 35.45849609 14.11352539 C34.46849609 13.78352539 33.47849609 13.45352539 32.45849609 13.11352539 C31.03130972 13.02742025 29.60042961 12.99580711 28.1706543 13 C27.30998856 13.00007553 26.44932281 13.00015106 25.56257629 13.00022888 C24.63748764 13.00539017 23.71239899 13.01055145 22.75927734 13.01586914 C21.80909225 13.01728409 20.85890717 13.01869904 19.87992859 13.02015686 C16.8435858 13.02575664 13.80731661 13.03830907 10.77099609 13.05102539 C8.71305445 13.05604042 6.65511165 13.06060332 4.59716797 13.06469727 C-0.44908437 13.07572599 -5.49528166 13.09299046 -10.54150391 13.11352539 C-11.54150391 10.11352539 -11.54150391 10.11352539 -10.61572266 7.88696289 C-10.15810547 7.09547852 -9.70048828 6.30399414 -9.22900391 5.48852539 C-8.77912109 4.69188477 -8.32923828 3.89524414 -7.86572266 3.07446289 C-5.66581279 -0.18322075 -3.70409738 -0.009904 0 0 Z " fill="#E7FBAE" transform="translate(62.54150390625,30.886474609375)"/>
<path d="M0 0 C2.10388569 -0.05402274 4.20816714 -0.09280256 6.3125 -0.125 C8.07013672 -0.15980469 8.07013672 -0.15980469 9.86328125 -0.1953125 C13 0 13 0 16 2 C19 7.33333333 19 7.33333333 19 10 C19.66 10 20.32 10 21 10 C21 10.99 21 11.98 21 13 C21.66 13 22.32 13 23 13 C24.125 16.75 24.125 16.75 23 19 C22.34 19 21.68 19 21 19 C20.855625 19.61875 20.71125 20.2375 20.5625 20.875 C20 23 20 23 19 25 C18.34 25 17.68 25 17 25 C16.67 24.01 16.34 23.02 16 22 C16.99 21.34 17.98 20.68 19 20 C19 19.01 19 18.02 19 17 C18.34 17 17.68 17 17 17 C17.33 15.68 17.66 14.36 18 13 C17.34 13 16.68 13 16 13 C13.62216162 10.62216162 13.40990792 9.27926335 13 6 C13.33 5.34 13.66 4.68 14 4 C12.68 3.67 11.36 3.34 10 3 C9.67 3.66 9.34 4.32 9 5 C8.34 4.34 7.68 3.68 7 3 C4.68234271 2.28072705 2.34904126 1.6090107 0 1 C0 0.67 0 0.34 0 0 Z " fill="#C1E365" transform="translate(108,5)"/>
<path d="M0 0 C1.47919922 0.06960937 1.47919922 0.06960937 2.98828125 0.140625 C3.98214844 0.17671875 4.97601563 0.2128125 6 0.25 C7.13888672 0.31960937 7.13888672 0.31960937 8.30078125 0.390625 C7.64078125 1.050625 6.98078125 1.710625 6.30078125 2.390625 C3.67578125 2.015625 3.67578125 2.015625 1.30078125 1.390625 C0.97078125 3.370625 0.64078125 5.350625 0.30078125 7.390625 C11.85078125 7.720625 23.40078125 8.050625 35.30078125 8.390625 C35.30078125 8.720625 35.30078125 9.050625 35.30078125 9.390625 C21.11078125 9.390625 6.92078125 9.390625 -7.69921875 9.390625 C-4.18524026 0.60567876 -4.18524026 0.60567876 0 0 Z " fill="#B3DB49" transform="translate(60.69921875,32.609375)"/>
<path d="M0 0 C0.66 0 1.32 0 2 0 C1.5584629 4.85690809 0.62111625 6.79272561 -3 10 C-6.06495215 13.44807117 -8.07468534 16.93847375 -10.05078125 21.0625 C-11.22757328 23.46451172 -12.583039 25.7328624 -14 28 C-8.645406 27.8028913 -8.645406 27.8028913 -4.125 25.4375 C-3.75375 24.963125 -3.3825 24.48875 -3 24 C-2.34 24 -1.68 24 -1 24 C-1 23.34 -1 22.68 -1 22 C-0.01 21.67 0.98 21.34 2 21 C2.33 21.66 2.66 22.32 3 23 C2.34 23 1.68 23 1 23 C0.690625 23.78375 0.38125 24.5675 0.0625 25.375 C-1 28 -1 28 -2 30 C-6.95 29.67 -11.9 29.34 -17 29 C-14.56641846 23.85203904 -11.87806498 19.20626617 -8.65234375 14.51953125 C-6.06285954 10.57102696 -3.80403807 6.43701462 -1.515625 2.30859375 C-1.01546875 1.54675781 -0.5153125 0.78492188 0 0 Z " fill="#E4F3B4" transform="translate(23,40)"/>
<path d="M0 0 C1.92377906 0.1260407 3.84592432 0.27937586 5.765625 0.45703125 C7.24095703 0.56241211 7.24095703 0.56241211 8.74609375 0.66992188 C11.17203459 0.84656805 13.59351673 1.04717689 16.015625 1.26953125 C14.53796474 5.96148343 12.86681833 9.14573019 9.015625 12.26953125 C1.85246256 13.7678834 -5.74962483 12.93127442 -12.984375 12.26953125 C-12.984375 11.27953125 -12.984375 10.28953125 -12.984375 9.26953125 C-11.664375 8.60953125 -10.344375 7.94953125 -8.984375 7.26953125 C-9.314375 8.58953125 -9.644375 9.90953125 -9.984375 11.26953125 C-4.044375 11.26953125 1.895625 11.26953125 8.015625 11.26953125 C8.345625 9.28953125 8.675625 7.30953125 9.015625 5.26953125 C9.675625 5.26953125 10.335625 5.26953125 11.015625 5.26953125 C11.345625 4.27953125 11.675625 3.28953125 12.015625 2.26953125 C9.22240282 2.35625871 6.43249972 2.46308482 3.640625 2.58203125 C2.8465625 2.60458984 2.0525 2.62714844 1.234375 2.65039062 C-0.84653081 2.747382 -2.91878832 2.9994795 -4.984375 3.26953125 C-5.974375 4.75453125 -5.974375 4.75453125 -6.984375 6.26953125 C-7.644375 5.93953125 -8.304375 5.60953125 -8.984375 5.26953125 C-6.64722269 0.8495638 -4.80570006 -0.08825013 0 0 Z " fill="#E6F5B9" transform="translate(135.984375,30.73046875)"/>
<path d="M0 0 C15.51 0 31.02 0 47 0 C47.495 1.485 47.495 1.485 48 3 C47.34 3 46.68 3 46 3 C45.67 3.66 45.34 4.32 45 5 C45 4.01 45 3.02 45 2 C38.78838643 2.09346486 32.57716587 2.19954341 26.3659668 2.31738281 C24.25242028 2.35569581 22.13880804 2.39054457 20.02514648 2.421875 C16.9891814 2.46747504 13.95366972 2.52547783 10.91796875 2.5859375 C9.4975251 2.60326431 9.4975251 2.60326431 8.04838562 2.62094116 C6.72735588 2.6507457 6.72735588 2.6507457 5.37963867 2.68115234 C4.21714851 2.70113785 4.21714851 2.70113785 3.03117371 2.7215271 C0.68895197 2.89208435 0.68895197 2.89208435 -2 5 C-1.34 3.35 -0.68 1.7 0 0 Z " fill="#C7DF7D" transform="translate(46,5)"/>
<path d="M0 0 C0.99 0.33 1.98 0.66 3 1 C0.525 4.465 0.525 4.465 -2 8 C0.05922402 10.05922402 4.21708124 9.41427579 7.0625 9.5625 C8.20041992 9.62727539 8.20041992 9.62727539 9.36132812 9.69335938 C11.24065438 9.79973633 13.12030244 9.90039934 15 10 C15 10.66 15 11.32 15 12 C8.4 12.33 1.8 12.66 -5 13 C-5.66 11.68 -6.32 10.36 -7 9 C-6.34 9 -5.68 9 -5 9 C-3.35 6.03 -1.7 3.06 0 0 Z " fill="#D2EB86" transform="translate(100,5)"/>
<path d="M0 0 C0.33 1.32 0.66 2.64 1 4 C0.34 4 -0.32 4 -1 4 C-0.67 2.68 -0.34 1.36 0 0 Z M-2 4 C-1.34 5.32 -0.68 6.64 0 8 C0.33 7.34 0.66 6.68 1 6 C1.38063221 8.3260857 1.71269945 10.66055264 2 13 C1 14 1 14 -0.84765625 14.09765625 C-2.8984375 14.06510417 -4.94921875 14.03255208 -7 14 C-5.66511872 10.40608886 -4.03977277 7.24509304 -2 4 Z " fill="#B4DE3D" transform="translate(16,54)"/>
<path d="M0 0 C0.33 0.99 0.66 1.98 1 3 C15.85 3 30.7 3 46 3 C46 3.99 46 4.98 46 6 C45.01 5.67 44.02 5.34 43 5 C41.57281363 4.91389486 40.14193352 4.88228172 38.7121582 4.88647461 C37.85149246 4.88655014 36.99082672 4.88662567 36.1040802 4.88670349 C35.17899155 4.89186478 34.25390289 4.89702606 33.30078125 4.90234375 C32.35059616 4.9037587 31.40041107 4.90517365 30.4214325 4.90663147 C27.38508971 4.91223125 24.34882052 4.92478368 21.3125 4.9375 C19.25455836 4.94251503 17.19661556 4.94707793 15.13867188 4.95117188 C10.09241954 4.9622006 5.04622225 4.97946507 0 5 C-0.33 4.01 -0.66 3.02 -1 2 C-0.67 1.34 -0.34 0.68 0 0 Z " fill="#EBF3D2" transform="translate(52,39)"/>
<path d="M0 0 C-0.33 2.64 -0.66 5.28 -1 8 C-2.32 8 -3.64 8 -5 8 C-5.33 8.66 -5.66 9.32 -6 10 C-6 7.36 -6 4.72 -6 2 C-7.32 2.33 -8.64 2.66 -10 3 C-9.625 1.0625 -9.625 1.0625 -9 -1 C-5.79937313 -2.60031344 -3.27728194 -1.03173691 0 0 Z " fill="#AFDE3C" transform="translate(53,12)"/>
<path d="M0 0 C-2 2 -2 2 -4.52197266 2.22705078 C-5.5588623 2.21657715 -6.59575195 2.20610352 -7.6640625 2.1953125 C-8.78554687 2.18886719 -9.90703125 2.18242187 -11.0625 2.17578125 C-12.238125 2.15902344 -13.41375 2.14226563 -14.625 2.125 C-16.40003906 2.11146484 -16.40003906 2.11146484 -18.2109375 2.09765625 C-21.14082523 2.07402812 -24.0703134 2.04108514 -27 2 C-27 1.34 -27 0.68 -27 0 C-24.0003508 -0.19654959 -21.00064899 -0.38246106 -18 -0.5625 C-17.16082031 -0.61857422 -16.32164062 -0.67464844 -15.45703125 -0.73242188 C-10.14062774 -1.0415151 -5.26352696 -0.82242609 0 0 Z " fill="#B6DA4B" transform="translate(161,14)"/>
<path d="M0 0 C0.99 0 1.98 0 3 0 C3.33 0.66 3.66 1.32 4 2 C4.99 1.67 5.98 1.34 7 1 C7.75 3.25 7.75 3.25 8 6 C6.0625 8.3125 6.0625 8.3125 4 10 C0.38860104 6.12435233 0.38860104 6.12435233 -1 4 C-0.8125 1.625 -0.8125 1.625 0 0 Z " fill="#B0DD3A" transform="translate(113,30)"/>
<path d="M0 0 C0.33 0.66 0.66 1.32 1 2 C13.87 1.67 26.74 1.34 40 1 C40 1.66 40 2.32 40 3 C27.13 3 14.26 3 1 3 C1 3.66 1 4.32 1 5 C0.34 4.67 -0.32 4.34 -1 4 C-0.67 2.68 -0.34 1.36 0 0 Z " fill="#E0F0B5" transform="translate(62,66)"/>
<path d="M0 0 C0.66 0.66 1.32 1.32 2 2 C1.34 2 0.68 2 0 2 C-0.309375 2.78375 -0.61875 3.5675 -0.9375 4.375 C-2 7 -2 7 -3 9 C-7.95 8.67 -12.9 8.34 -18 8 C-17.34 6.35 -16.68 4.7 -16 3 C-15.67 4.32 -15.34 5.64 -15 7 C-9.645406 6.8028913 -9.645406 6.8028913 -5.125 4.4375 C-4.75375 3.963125 -4.3825 3.48875 -4 3 C-3.34 3 -2.68 3 -2 3 C-2 2.34 -2 1.68 -2 1 C-1.34 0.67 -0.68 0.34 0 0 Z " fill="#E5F1BF" transform="translate(24,61)"/>
<path d="M0 0 C1.9375 0.6875 1.9375 0.6875 4 2 C4.75 4.625 4.75 4.625 5 7 C3.02 7 1.04 7 -1 7 C-2 4 -2 4 -1.0625 1.8125 C-0.5365625 0.9153125 -0.5365625 0.9153125 0 0 Z " fill="#ADDB35" transform="translate(130,34)"/>
<path d="M0 0 C0.66 0 1.32 0 2 0 C3.125 3.75 3.125 3.75 2 6 C1.34 6 0.68 6 0 6 C-0.144375 6.61875 -0.28875 7.2375 -0.4375 7.875 C-1 10 -1 10 -2 12 C-2.66 12 -3.32 12 -4 12 C-4.33 11.01 -4.66 10.02 -5 9 C-4.01 8.34 -3.02 7.68 -2 7 C-1.32843384 5.06381575 -1.32843384 5.06381575 -1 3 C-0.67 2.01 -0.34 1.02 0 0 Z " fill="#D9ED9F" transform="translate(129,18)"/>
<path d="M0 0 C0.99 0.66 1.98 1.32 3 2 C0.24921116 2.91692961 -1.35948913 3.10886083 -4.1875 3.0625 C-6.0746875 3.0315625 -6.0746875 3.0315625 -8 3 C-8 3.99 -8 4.98 -8 6 C-8.99 5.67 -9.98 5.34 -11 5 C-10.625 3.0625 -10.625 3.0625 -10 1 C-6.87293041 -0.5635348 -3.42017557 -0.39958487 0 0 Z " fill="#B8DE4A" transform="translate(111,6)"/>
<path d="M0 0 C1.98 1.65 3.96 3.3 6 5 C6.99 3.35 7.98 1.7 9 0 C9.66 0.33 10.32 0.66 11 1 C10.34 2.65 9.68 4.3 9 6 C8.34 6 7.68 6 7 6 C6.67 7.32 6.34 8.64 6 10 C3.25722422 6.80009492 1.3697164 3.99500618 0 0 Z " fill="#E6F5B8" transform="translate(112,34)"/>
<path d="M0 0 C0.66 0 1.32 0 2 0 C2 0.66 2 1.32 2 2 C2.99 2.33 3.98 2.66 5 3 C4.34 5.31 3.68 7.62 3 10 C2.360625 9.195625 1.72125 8.39125 1.0625 7.5625 C-0.40603502 5.7249496 -0.40603502 5.7249496 -2 4 C-2 3.34 -2 2.68 -2 2 C-1.34 2 -0.68 2 0 2 C0 1.34 0 0.68 0 0 Z " fill="#B4E03F" transform="translate(34,26)"/>
<path d="M0 0 C0.66 0.33 1.32 0.66 2 1 C2 1.99 2 2.98 2 4 C2.54140625 3.82597656 3.0828125 3.65195312 3.640625 3.47265625 C6.48751809 2.90233495 8.86718522 3.12862699 11.75 3.4375 C12.73484375 3.53933594 13.7196875 3.64117187 14.734375 3.74609375 C15.48203125 3.82988281 16.2296875 3.91367187 17 4 C17 4.33 17 4.66 17 5 C11.06 5 5.12 5 -1 5 C-0.67 3.35 -0.34 1.7 0 0 Z " fill="#B9DC57" transform="translate(127,37)"/>
<path d="M0 0 C1.32 0 2.64 0 4 0 C3.71640113 1.4391134 3.42278601 2.87625518 3.125 4.3125 C2.96257813 5.11300781 2.80015625 5.91351563 2.6328125 6.73828125 C2 9 2 9 0 12 C-0.66 12 -1.32 12 -2 12 C-1.49835478 8.27349266 -0.9780083 4.63260227 0 1 C0 0.67 0 0.34 0 0 Z " fill="#CBEA76" transform="translate(27,49)"/>
<path d="M0 0 C0.99 0 1.98 0 3 0 C1.125 4.75 1.125 4.75 0 7 C-0.66 7 -1.32 7 -2 7 C-2.33 8.32 -2.66 9.64 -3 11 C-4.04449911 7.86650268 -3.93423645 7.01031744 -3 4 C-2.34 4 -1.68 4 -1 4 C-0.67 2.68 -0.34 1.36 0 0 Z " fill="#DAECA1" transform="translate(45,26)"/>
<path d="M0 0 C0.99 0 1.98 0 3 0 C3 0.66 3 1.32 3 2 C9.27 2 15.54 2 22 2 C22 2.33 22 2.66 22 3 C15.4 3.33 8.8 3.66 2 4 C1.34 2.68 0.68 1.36 0 0 Z " fill="#F3F8E0" transform="translate(93,14)"/>
<path d="M0 0 C4.95 0 9.9 0 15 0 C15.33 0.99 15.66 1.98 16 3 C15.34 3 14.68 3 14 3 C13.67 3.66 13.34 4.32 13 5 C13 4.01 13 3.02 13 2 C11.96939453 2.03480469 11.96939453 2.03480469 10.91796875 2.0703125 C9.56638672 2.09738281 9.56638672 2.09738281 8.1875 2.125 C7.29417969 2.14820313 6.40085937 2.17140625 5.48046875 2.1953125 C3 2 3 2 0 0 Z " fill="#E7F3BF" transform="translate(78,5)"/>
<path d="M0 0 C0.33 0.99 0.66 1.98 1 3 C1.66 3 2.32 3 3 3 C3 4.65 3 6.3 3 8 C1.824375 7.9690625 1.824375 7.9690625 0.625 7.9375 C-1.98114961 7.81315937 -1.98114961 7.81315937 -4 9 C-3 6 -3 6 -1 4 C-0.3574765 1.93125966 -0.3574765 1.93125966 0 0 Z " fill="#B2E03D" transform="translate(31,31)"/>
<path d="M0 0 C-1.3125 2 -1.3125 2 -3 4 C-3.99 4 -4.98 4 -6 4 C-6 4.66 -6 5.32 -6 6 C-6.66 6 -7.32 6 -8 6 C-7.625 3.5625 -7.625 3.5625 -7 1 C-4.53721199 -0.231394 -2.7204945 -0.07159196 0 0 Z " fill="#AEDD30" transform="translate(147,34)"/>
<path d="M0 0 C0.66 0.66 1.32 1.32 2 2 C1.34 2 0.68 2 0 2 C-0.66 3.65 -1.32 5.3 -2 7 C-3.65 7 -5.3 7 -7 7 C-5.625 5 -5.625 5 -4 3 C-3.34 3 -2.68 3 -2 3 C-2 2.34 -2 1.68 -2 1 C-1.34 0.67 -0.68 0.34 0 0 Z " fill="#D0EB83" transform="translate(24,61)"/>
<path d="M0 0 C0.33 1.98 0.66 3.96 1 6 C0.38125 5.649375 -0.2375 5.29875 -0.875 4.9375 C-1.926875 4.4734375 -1.926875 4.4734375 -3 4 C-3.99 4.495 -3.99 4.495 -5 5 C-4.625 3.0625 -4.625 3.0625 -4 1 C-2 0 -2 0 0 0 Z M1 1 C2.98 1.99 2.98 1.99 5 3 C3.68 3 2.36 3 1 3 C1 2.34 1 1.68 1 1 Z " fill="#A9D731" transform="translate(48,10)"/>
<path d="M0 0 C0.66 0 1.32 0 2 0 C1.38479725 3.99881788 -0.60268669 6.80358226 -3 10 C-3.66 10 -4.32 10 -5 10 C-3.33333333 6.66666667 -1.66666667 3.33333333 0 0 Z " fill="#E9F7B6" transform="translate(37,18)"/>
<path d="M0 0 C2.97 0 5.94 0 9 0 C9 0.99 9 1.98 9 3 C7.02 2.34 5.04 1.68 3 1 C2.67 1.66 2.34 2.32 2 3 C1.34 2.01 0.68 1.02 0 0 Z " fill="#C5E56F" transform="translate(115,7)"/>
<path d="M0 0 C0.33 0 0.66 0 1 0 C1 1.65 1 3.3 1 5 C0.34 5 -0.32 5 -1 5 C-1 5.66 -1 6.32 -1 7 C-1.99 6.67 -2.98 6.34 -4 6 C-2.69593116 3.98079663 -1.36176581 1.98075027 0 0 Z " fill="#D9EE9E" transform="translate(99,49)"/>
<path d="M0 0 C1.5 1.375 1.5 1.375 3 3 C3 3.66 3 4.32 3 5 C3.66 5 4.32 5 5 5 C4.67 5.99 4.34 6.98 4 8 C1 6 1 6 0.3125 2.875 C0.209375 1.92625 0.10625 0.9775 0 0 Z " fill="#DBEFA1" transform="translate(124,10)"/>
</svg>
